#!OML:ASF F:\VICON\USERDATA\INSTALL\rory3\rory3.ASF
:FULLY-SPECIFIED
:DEGREES
80
root -5.053931537349536 18.123542379733617 -3.460842566306649 -179.472816646747 -3.108733735283451 -184.55775665753742
lfemur -24.073670055975285 -18.10542119660733 -14.437917172561185
ltibia 25.84407682718867
lfoot 20.858206371474704 -46.36515769305499
ltoes 44.492588559721895
rfemur 16.153141864255304 -9.968462556204619 20.95076997558497
rtibia 17.076392297092163
rfoot 27.266359095614305 -39.84775618895779
rtoes 27.43899364526283
lowerback -9.739923479529224 12.690572088191205 16.641674326242015
upperback -14.977374869677844 19.696521190932792 4.997034004416896
thorax -8.370202663472583 9.762969813525471 -2.960333783552395
lowerneck -6.737578316494568 -22.96560535949636 -3.9303801783097465
upperneck 12.023053500650178 -32.95302109154187 5.022232735442327
head 6.050637794560458 -16.097667457831562 -0.32161273412331326
lclavicle -5.657526070814295e-15 -1.0772701946866694e-14
lhumerus 59.613576035387965 20.56104468614506 69.1018030442876
lradius 76.41815181008086
lwrist 30.714097111419
lhand -24.298952929241963 16.36429612613018
lfingers 7.125020000000001
lthumb -177.8057382519747 -28.506691453959775
rclavicle -5.657526070814292e-15 -1.0772701946866692e-14
rhumerus 114.02940018143119 33.95359894670973 -50.40933981978664
rradius 60.30331143294732
rwrist 11.279185859917838
rhand -27.077964901831162 14.790261320738232
rfingers 7.125020000000001
rthumb -0.49616126211221356 -14.703486327206345
81
root -5.03168509152821 18.111958380410083 -3.6037484023195585 -178.61130209972384 -5.137833985683088 -183.7319431220257
lfemur -24.91348886888624 -18.958636921764256 -13.59711893881622
ltibia 26.68028993963208
lfoot 22.02286425225097 -46.53142669709347
ltoes 46.0328068652706
rfemur 17.5692117615826 -10.402527879964119 22.045117201932776
rtibia 14.668379251876674
rfoot 29.92553587471857 -39.26877828644547
rtoes 26.753143226452725
lowerback -10.263606232271385 13.997952357682966 16.52572822624055
upperback -15.783726663695504 19.943501556258113 4.118300360939259
thorax -8.523292931883308 9.256091784232712 -3.5746338884643905
lowerneck -6.851213461238661 -22.908388091659273 -4.401349264016638
upperneck 11.471201989728998 -32.70808458974644 5.356871793951865
head 5.983830948690815 -15.975052159211154 -0.1902027683035339
lclavicle -5.4164324105953296e-15 -1.054780009502413e-14
lhumerus 62.78593059187653 23.249848232619584 67.4274671349034
lradius 78.99882740626754
lwrist 29.382705651755835
lhand -25.109205907942464 16.221924339849707
lfingers 7.125020000000001
lthumb -178.58655460364287 -27.73114599985189
rclavicle -5.41643241059533e-15 -1.0547800095024129e-14
rhumerus 117.41417037666733 32.56638804814004 -49.69585131422805
rradius 63.569574817937436
rwrist 12.527172875972298
rhand -30.06262104466236 15.705236918966238
rfingers 7.125020000000001
rthumb -3.3792165625481747 -13.795468599833802
82
root -5.019748068846064 18.095873830403974 -3.743242510819876 -178.15757472840568 -6.937284463825058 -183.24835328480134
lfemur -25.60934570282936 -19.786674717186244 -12.957158660573317
ltibia 27.37119997936621
lfoot 22.82071450328536 -46.77382956520271
ltoes 47.00475988470106
rfemur 18.72071478354517 -10.783977516335096 22.833012546615336
rtibia 12.490604317258414
rfoot 32.39099111589201 -38.51389486227299
rtoes 26.056661896001252
lowerback -10.812507663976112 15.319395578897302 16.285092026857473
upperback -16.495849782404488 20.019374669609004 3.2558796568265587
thorax -8.571933120518665 8.616000707355578 -4.115363935352842
lowerneck -6.969079185331365 -22.914175113749714 -4.773198681991864
upperneck 11.161705218345032 -32.63570695695569 5.509143127264214
head 5.965737041617166 -15.945089716628912 -0.12193176281728113
lclavicle -5.604930062259134e-15 -1.0684344245781119e-14
lhumerus 65.14829346136364 25.573046766722285 66.10846336741186
lradius 81.32467996410905
lwrist 27.683545454793446
lhand -26.22041005003105 16.36283473422203
lfingers 7.125020000000001
lthumb -179.65687613737668 -26.312054565257768
rclavicle -5.604930062259131e-15 -1.0684344245781119e-14
rhumerus 119.96485510943285 31.214805891611107 -49.12946038980178
rradius 66.3684406591538
rwrist 13.310201423601441
rhand -33.156284873161304 16.587575229517803
rfingers 7.125020000000001
rthumb -6.366483701227082 -12.882372710925331
83
root -5.014769884479555 18.076788031343327 -3.8720722557239555 -178.27762091673534 -8.515189367661044 -183.3353082990222
lfemur -26.177764390387352 -20.501519671481564 -12.524063454810804
ltibia 27.927043417378222
lfoot 23.39983384836406 -47.12907334857158
ltoes 47.56919505925076
rfemur 19.668832091321896 -11.111846371670044 23.357620130314356
rtibia 10.652941893834258
rfoot 34.500782047251036 -37.66370417342128
rtoes 25.412729863838415
lowerback -11.363208598420849 16.467233527069006 16.013821967550975
upperback -17.1012929585914 20.031873327794514 2.4476062001168057
thorax -8.545073280239691 8.028769054973587 -4.606530978760265
lowerneck -7.100137531999637 -22.98574695948196 -5.09137958752902
upperneck 11.090256603507804 -32.64066017596007 5.516040992678216
head 5.99451654676913 -15.94382816734119 -0.10510787304855218
lclavicle -5.943551437170658e-15 -1.0951414877774482e-14
lhumerus 66.97665803499962 27.63983269926002 65.21533568936606
lradius 83.3050656369166
lwrist 25.62710314178271
lhand -27.438830278412787 16.685966057380725
lfingers 7.125020000000001
lthumb -180.83016966333784 -25.330778040977393
rclavicle -5.943551437170653e-15 -1.095141487777448e-14
rhumerus 121.87362290815605 29.953947242615794 -48.680151811922855
rradius 68.661018579501
rwrist 13.717497766271137
rhand -36.18700121815106 17.576304826201383
rfingers 7.125020000000001
rthumb -9.291868807745539 -11.830816226712134
